# xmcd
#
# Track frame offsets: 
#        182
#        11500
#        28772
#        41297
#        67070
#        86157
#        95997
#        108562
#        119775
#        129492
#        143427
#        156112
#
# Disc length: 2225 seconds
#
# Revision: 2
# Processed by: cddbd v1.5.2PL0 Copyright (c) Steve Scherf et al.
# Submitted via: ExactAudioCopy v1.1
#
DISCID=a708af0c
DTITLE=Eric Clapton - The Early Years
DYEAR=1991
DGENRE=Blues
TTITLE0=For Your Love
TTITLE1=Too Much Monkey Business (live)
TTITLE2=GoodMorning Little Schoolgirl
TTITLE3=Smokestack Lighning (live)
TTITLE4=Tak It Easy
TTITLE5=I'mYour Witchdoctor
TTITLE6=On Top of the World
TTITLE7=Snake Drive
TTITLE8=Tribute to Elmore
TTITLE9=Draggin' My Tail
TTITLE10=Freight Loader
TTITLE11=Miles Road
EXTD=
EXTT0=
EXTT1=
EXTT2=
EXTT3=
EXTT4=
EXTT5=
EXTT6=
EXTT7=
EXTT8=
EXTT9=
EXTT10=
EXTT11=
PLAYORDER=
